# xmcd
#
# Track frame offsets:
# 150
# 66792
# 127617
# 155255
# 210900
#
# Disc length: 3815 seconds
#
#
# Revision: 0
# Processed by: cddbd v1.5.1PL0 Copyright (c) Steve Scherf et al.
# Submitted via: FreeRIP 2.80 
#
DISCID=320ee505
DTITLE=Tchaikovsky - The great collection of classical music 40
DYEAR=1991
DGENRE=Classical
TTITLE0=Symphony No.5-I.Andante
TTITLE1=Symphony No.5-II.Andante cantabile
TTITLE2=Symphony No.5-III.Valse
TTITLE3=Symphony No.5-IV.Finale
TTITLE4=1812 Overture
EXTD=The Cleveland Orchestra\nWiener Philharmoniker\nChorus of the Wienna State Opera\nLorin Maazel, conductor
EXTT0=
EXTT1=
EXTT2=
EXTT3=
EXTT4=
PLAYORDER=
